<?xml version="1.0" encoding="UTF-8" standalone="no"?>
<svg xmlns:rdf="http://www.w3.org/1999/02/22-rdf-syntax-ns#" xmlns="http://www.w3.org/2000/svg" version="1.1" xmlns:cc="http://creativecommons.org/ns#" height="64" width="64" viewBox="0 0 63.99995 64" preserveAspectRatio="xMidYMid meet" xmlns:dc="http://purl.org/dc/elements/1.1/">
<metadata>
<rdf:RDF>
<cc:Work rdf:about="">
<dc:format>image/svg+xml</dc:format>
<dc:type rdf:resource="http://purl.org/dc/dcmitype/StillImage"/>
<dc:title/>
</cc:Work>
</rdf:RDF>
</metadata>
<g transform="translate(-343 -500)">
<path fill="#444440" d="m375 500c-17.7 0-32 14.3-32 32s14.3 32 32 32 32-14.3 32-32-14.3-32-32-32zm-14.7 13.4c16.4 16.8 16.9 17.1 18.8 18.4v0.344c-1.94 1.41-3.26 2.48-18.8 18.4l-2.53-0.875c10.6-16.5 11.5-17.7 11.5-17.7s-0.971-1.06-11.5-17.7l2.53-0.875zm17.2 0c16.4 16.8 16.9 17.1 18.8 18.4v0.344c-1.94 1.41-3.26 2.48-18.8 18.4l-2.53-0.875c10.6-16.5 11.5-17.7 11.5-17.7s-0.971-1.06-11.5-17.7l2.53-0.875z"/>
</g>
</svg>
